<svg width="567" height="207" viewBox="0 0 567 207" fill="none" xmlns="http://www.w3.org/2000/svg">
<g clip-path="url(#clip0)">
<path d="M275.2 0H221.6V53.6H275.2V0Z" fill="#EEEEEE"/>
<g opacity="0.97">
<g opacity="0.97">
<g opacity="0.97">
<g opacity="0.97">
<path opacity="0.97" d="M221.6 53.6H275.2V0H221.6V53.6ZM265.4 19.1L244.7 27.1L265.4 35.1V45.7L231.4 31.6V22.7L265.4 8.6V19.1Z" fill="#142447"/>
</g>
</g>
</g>
</g>
<g opacity="0.97">
<g opacity="0.97">
<g opacity="0.97">
<g opacity="0.97">
<path opacity="0.97" d="M391.9 0H338.3V53.6H391.9V0Z" fill="#142447"/>
</g>
</g>
<g opacity="0.97">
<g opacity="0.97">
<path opacity="0.97" d="M388.6 27.8V25.7C388.6 24.5 387.6 23.5 386.4 23.5H382.4C381.5 23.5 380.6 22.9 380.3 22C380 21 379.6 20.1 379.2 19.2C378.8 18.4 378.9 17.3 379.6 16.7L382.5 13.8C383.3 13 383.3 11.6 382.5 10.7L381 9.4C380.2 8.6 378.8 8.6 377.9 9.4L375 12.3C374.3 13 373.3 13.1 372.5 12.7C371.6 12.2 370.7 11.8 369.7 11.6C368.8 11.3 368.2 10.5 368.2 9.5V5.5C368.2 4.3 367.2 3.3 366 3.3H363.9C362.7 3.3 361.7 4.3 361.7 5.5V9.5C361.7 10.4 361.1 11.3 360.2 11.6C359.2 11.9 358.3 12.3 357.4 12.7C356.6 13.1 355.5 13 354.9 12.3L352 9.4C351.2 8.6 349.8 8.6 348.9 9.4L347.4 10.9C346.6 11.7 346.6 13.1 347.4 14L350.3 16.9C351 17.6 351.1 18.6 350.7 19.4C350.2 20.3 349.8 21.2 349.6 22.2C349.3 23.1 348.5 23.7 347.5 23.7H343.5C342.3 23.7 341.3 24.7 341.3 25.9V28C341.3 29.2 342.3 30.2 343.5 30.2H347.5C348.4 30.2 349.3 30.8 349.6 31.7C349.9 32.7 350.3 33.6 350.7 34.5C351.1 35.3 351 36.4 350.3 37L347.4 39.9C346.6 40.7 346.6 42.1 347.4 43L348.9 44.5C349.7 45.3 351.1 45.3 352 44.5L354.9 41.6C355.6 40.9 356.6 40.8 357.4 41.2C358.3 41.7 359.2 42 360.2 42.3C361.1 42.6 361.7 43.4 361.7 44.4V48.4C361.7 49.6 362.7 50.6 363.9 50.6H366C367.2 50.6 368.2 49.6 368.2 48.4V44.4C368.2 43.5 368.8 42.6 369.7 42.3C370.7 42 371.6 41.6 372.5 41.1C373.3 40.7 374.3 40.8 375 41.5L377.9 44.4C378.7 45.2 380.1 45.2 381 44.4L382.5 42.9C383.3 42.1 383.3 40.7 382.5 39.8L379.6 36.9C378.9 36.2 378.8 35.2 379.2 34.4C379.7 33.5 380 32.6 380.3 31.6C380.6 30.7 381.4 30.1 382.4 30.1H386.4C387.7 30 388.6 29 388.6 27.8ZM372.2 29.4C372.1 29.6 372 29.8 371.9 30C371.2 31.6 369.9 32.9 368.2 33.6C368 33.7 367.8 33.8 367.6 33.9C366.8 34.2 365.9 34.4 365 34.4C364.1 34.4 363.2 34.2 362.4 34C362.2 33.9 362 33.8 361.8 33.7C360.2 33 358.9 31.7 358.2 30.1C358.1 29.9 358 29.7 357.9 29.5C357.6 28.7 357.5 27.8 357.5 26.9C357.5 26 357.7 25.1 358 24.3C358.1 24.1 358.1 23.9 358.3 23.7C359 22.1 360.3 20.8 361.9 20C362.1 19.9 362.3 19.8 362.5 19.7C363.3 19.4 364.2 19.3 365.1 19.3C366 19.3 366.9 19.5 367.7 19.8C367.9 19.9 368.1 20 368.3 20.1C369.9 20.8 371.2 22.1 372 23.8C372.1 24 372.2 24.2 372.3 24.4C372.6 25.2 372.8 26.1 372.8 27C372.7 27.7 372.5 28.6 372.2 29.4Z" fill="#EEEEEE"/>
</g>
</g>
</g>
</g>
<g opacity="0.97">
<g opacity="0.97">
<g opacity="0.97">
<g opacity="0.97">
<path opacity="0.97" d="M566.9 0V24.9H558.8L553.3 39.7L546.2 0H566.9Z" fill="#142447"/>
</g>
</g>
<g opacity="0.97">
<g opacity="0.97">
<path opacity="0.97" d="M545.3 0L538.6 24.7L534.5 38.6L527.7 1.2L519.7 24.9H513.3V0H545.3Z" fill="#142447"/>
</g>
</g>
<g opacity="0.97">
<g opacity="0.97">
<path opacity="0.97" d="M566.9 24.9V53.6H513.3V24.9H519.7L527.7 1.2L534.5 38.6L538.6 24.7L545.3 0H546.2L553.3 39.7L558.8 24.9H566.9Z" fill="#E33F5A"/>
</g>
</g>
<g opacity="0.97">
<g opacity="0.97">
<path opacity="0.97" d="M552.1 53.6L561.4 28.7H566.9V24.9H558.8L553.3 39.7L546.2 0H545.3L538.6 24.7L534.5 38.6L527.7 1.2L519.7 24.9H513.3V28.8H522.4L526.6 16.4L533.3 53.6H534.1L542.2 25.8L545 15.5L551.9 53.6H552.1Z" fill="#F1F1F2"/>
</g>
</g>
</g>
</g>
<g opacity="0.97">
<g opacity="0.97">
<g opacity="0.97">
<g opacity="0.97">
<path opacity="0.97" d="M450.2 0H396.6V53.6H450.2V0Z" fill="#142447"/>
</g>
</g>
<g opacity="0.97">
<g opacity="0.97">
<path opacity="0.97" d="M423.4 8.39999V45.1" stroke="#EEEEEE" stroke-width="11.0817" stroke-miterlimit="10"/>
</g>
</g>
<g opacity="0.97">
<g opacity="0.97">
<path opacity="0.97" d="M407.5 17.6L439.3 36" stroke="#EEEEEE" stroke-width="11.0817" stroke-miterlimit="10"/>
</g>
</g>
<g opacity="0.97">
<g opacity="0.97">
<path opacity="0.97" d="M407.5 36L439.3 17.6" stroke="#EEEEEE" stroke-width="11.0817" stroke-miterlimit="10"/>
</g>
</g>
</g>
</g>
<g opacity="0.97">
<g opacity="0.97">
<g opacity="0.97">
<g opacity="0.97">
<path opacity="0.97" d="M333.6 26.8C333.6 41.6 321.6 53.6 306.8 53.6C292 53.6 280 41.6 280 26.8C280 12 292 0 306.8 0C321.6 0 333.6 12 333.6 26.8Z" fill="#E33F5A"/>
</g>
</g>
<g opacity="0.97">
<g opacity="0.97">
<path opacity="0.97" d="M326.4 26.8C326.4 37.7 317.6 46.5 306.7 46.5C295.8 46.5 287 37.7 287 26.8C287 15.9 295.8 7.10001 306.7 7.10001C317.6 7.10001 326.4 15.9 326.4 26.8Z" fill="#142447"/>
</g>
</g>
<g opacity="0.97">
<g opacity="0.97">
<path opacity="0.97" d="M316.4 26.8C316.4 32.2 312.1 36.5 306.7 36.5C301.3 36.5 297 32.2 297 26.8C297 21.4 301.3 17.1 306.7 17.1C312.1 17.1 316.4 21.4 316.4 26.8Z" fill="#E33F5A"/>
</g>
</g>
</g>
</g>
<path d="M506.546 37.0284C512.21 23.3536 505.716 7.67594 492.042 2.01151C478.367 -3.65292 462.689 2.84083 457.025 16.5157C451.36 30.1905 457.854 45.8681 471.529 51.5326C485.204 57.197 500.881 50.7033 506.546 37.0284Z" fill="#142447"/>
<path d="M481.8 49.5C494.337 49.5 504.5 39.3369 504.5 26.8C504.5 14.2631 494.337 4.10001 481.8 4.10001C469.263 4.10001 459.1 14.2631 459.1 26.8C459.1 39.3369 469.263 49.5 481.8 49.5Z" fill="white"/>
<path d="M480.1 30C477.7 30 475.6 30 473.4 30C472.1 30 471.8 29.4 472.5 28.3C476.9 21.8 481.4 15.2 485.9 8.7C486.2 8.3 486.8 8.2 487.2 8C487.3 8.5 487.6 9 487.5 9.5C486.7 13.7 485.8 17.8 484.9 22C484.8 22.4 484.7 22.9 484.6 23.6C486.6 23.6 488.4 23.6 490.3 23.6C490.8 23.6 491.5 23.7 491.6 24C491.8 24.3 491.5 25 491.3 25.4C487.2 31.8 483.1 38.2 479 44.6C478.7 45.1 478 45.3 477.6 45.6C477.5 45 477.2 44.4 477.3 43.8C478.1 39.3 479.1 34.7 480.1 30Z" fill="#E33F5A"/>
<path d="M0 187.6L14.5 171.2C16.3 175.7 19.3 179.3 23.4 181.8C27.5 184.3 32 185.7 37.1 185.7C43.2 185.7 48.1 184.3 51.6 181.4C55.2 178.5 56.9 174.6 56.9 169.7C56.9 163.9 51 158.1 39.1 152.4C35.3 150.6 32.2 149.1 30 147.9C19.3 142.3 11.9 136.9 7.8 131.6C3.7 126.3 1.6 120 1.6 112.6C1.6 102.5 5.6 94.2 13.6 87.8C21.6 81.4 32 78.1 44.7 78.1C52.1 78.1 58.5 79.4 63.9 82C69.3 84.4 74 88.4 78.2 94L62.8 108.8C61 105.2 58.5 102.6 55.5 100.8C52.5 99 48.8 98.2 44.5 98.2C39.3 98.2 35.1 99.5 32 102.1C28.9 104.7 27.2 108 27.2 112.2C27.2 118.7 33.5 124.6 46.1 129.9C48.6 131 50.5 131.8 51.9 132.4C62.3 137.1 69.9 142.5 74.9 148.4C79.9 154.3 82.4 161.1 82.4 168.8C82.4 180.3 78.5 189.4 70.7 196.2C62.9 203 52.4 206.4 39.2 206.4C29.8 206.4 21.8 204.8 15.2 201.6C8.6 198.4 3.3 193.6 0 187.6Z" fill="#142447"/>
<path d="M149.3 103.1V203.1H123.1V103.1H93.2V80.8H179.2V103L149.3 103.1Z" fill="#142447"/>
<path d="M196.3 203.1V80.8H268.3V102.8H222.5V128H268.3V150.2H222.5V180.8H268.3V203H196.3V203.1Z" fill="#142447"/>
<path d="M294.4 203.1V80.8H320.5V203H294.4V203.1Z" fill="#142447"/>
<path d="M462.9 182.9V203.1H378.2L421.6 146.2C427.6 138.4 431.8 132.2 434.2 127.7C436.6 123.2 437.7 119.2 437.7 115.8C437.7 111 436.3 107.3 433.4 104.5C430.5 101.8 426.6 100.4 421.6 100.4C416.9 100.4 413.2 102.1 410.4 105.5C407.6 108.9 406.2 113.5 406.2 119.3V119.9H381.6V117.8C381.6 105.7 385.1 96.3 392 89.6C399 82.9 408.8 79.6 421.6 79.6C434.6 79.6 444.8 82.6 452 88.5C459.2 94.4 462.9 102.8 462.9 113.5C462.9 125.5 453.5 143.3 434.7 166.8L432.9 168.9L421.6 182.9H462.9Z" fill="#E33F5A"/>
<path d="M566.9 142.9C566.9 162.8 562.9 178.4 555 189.6C547 200.8 536 206.4 521.8 206.4C507.5 206.4 496.5 200.8 488.5 189.7C480.6 178.6 476.6 163 476.6 142.9C476.6 123.1 480.6 107.6 488.6 96.4C496.6 85.2 507.7 79.6 521.8 79.6C536.1 79.6 547.2 85.1 555.1 96.2C563 107.3 566.9 122.8 566.9 142.9ZM502 143.1C502 156.2 503.7 166.3 507.1 173.3C510.5 180.3 515.4 183.8 521.7 183.8C528.2 183.8 533.1 180.3 536.5 173.4C539.9 166.5 541.5 156.2 541.5 142.8C541.5 129.5 539.8 119.4 536.5 112.5C533.2 105.6 528.3 102.1 521.9 102.1C515.4 102.1 510.5 105.6 507.1 112.6C503.7 119.6 502 129.7 502 143.1Z" fill="#E33F5A"/>
</g>
<defs>
<clipPath id="clip0">
<rect width="566.9" height="206.7" fill="white"/>
</clipPath>
</defs>
</svg>
