<svg width="224" height="229" viewBox="0 0 224 229" fill="none" xmlns="http://www.w3.org/2000/svg">
<g clip-path="url(#clip0)">
<path d="M74 154H-1V229H74V154Z" fill="#EEEEEE"/>
<g opacity="0.97">
<g opacity="0.97">
<path opacity="0.97" d="M-1 229H74V154H-1V229ZM60.2674 180.685L31.347 191.837L60.2806 202.977V217.768L12.6797 198.016V185.593L60.2674 165.827V180.685Z" fill="#142447"/>
</g>
</g>
<g clip-path="url(#clip1)">
<path d="M52.5066 194.954C67.1537 180.307 67.1537 156.56 52.5066 141.913C37.8595 127.265 14.1119 127.265 -0.535236 141.913C-15.1823 156.56 -15.1823 180.307 -0.535236 194.954C14.1119 209.601 37.8595 209.601 52.5066 194.954Z" fill="#142447"/>
<path d="M25.9888 200.172C43.5174 200.172 57.7272 185.962 57.7272 168.434C57.7272 150.905 43.5174 136.695 25.9888 136.695C8.46019 136.695 -5.74957 150.905 -5.74957 168.434C-5.74957 185.962 8.46019 200.172 25.9888 200.172Z" fill="white"/>
<path d="M23.5281 172.945C20.2206 172.945 17.1777 172.972 14.1349 172.932C12.2562 172.905 11.8329 172.151 12.8913 170.59C19.1093 161.435 25.3273 152.28 31.5983 143.165C31.9555 142.649 32.789 142.477 33.4108 142.146C33.5563 142.834 33.9267 143.562 33.7944 144.183C32.6434 150.018 31.3998 155.839 30.1827 161.673C30.0504 162.295 29.971 162.917 29.8122 163.909C32.564 163.909 35.1439 163.869 37.7369 163.936C38.3852 163.949 39.351 164.108 39.5759 164.518C39.814 164.954 39.47 165.867 39.126 166.41C33.4108 175.379 27.6822 184.336 21.8876 193.253C21.4642 193.901 20.5513 194.232 19.8634 194.708C19.7311 193.875 19.3342 193.002 19.493 192.221C20.763 185.871 22.1389 179.52 23.5281 172.945Z" fill="#E33F5A"/>
</g>
<g clip-path="url(#clip2)">
<g opacity="0.97">
<g opacity="0.97">
<path opacity="0.97" d="M104.958 125.159H29.9578V200.159H104.958V125.159Z" fill="#142447"/>
<path opacity="0.97" d="M67.4512 136.986V188.345" stroke="#EEEEEE" stroke-width="117.227" stroke-miterlimit="10"/>
<path opacity="0.97" d="M45.2251 149.819L89.7038 175.499" stroke="#EEEEEE" stroke-width="117.227" stroke-miterlimit="10"/>
<path opacity="0.97" d="M45.2251 175.499L89.7038 149.819" stroke="#EEEEEE" stroke-width="117.227" stroke-miterlimit="10"/>
</g>
</g>
</g>
</g>
<g clip-path="url(#clip3)">
<g opacity="0.97">
<g opacity="0.97">
<path opacity="0.97" d="M149 112.507C149 133.225 132.211 150.013 111.493 150.013C90.7754 150.013 74 133.211 74 112.507C74 91.7887 90.7887 75 111.507 75C132.225 75 149 91.7887 149 112.507Z" fill="#E33F5A"/>
<path opacity="0.97" d="M139.025 112.507C139.025 127.708 126.708 140.025 111.507 140.025C96.3055 140.025 83.9885 127.708 83.9885 112.507C83.9885 97.3055 96.3055 84.9885 111.507 84.9885C126.708 84.9885 139.025 97.3055 139.025 112.507Z" fill="#142447"/>
<path opacity="0.97" d="M125.067 112.507C125.067 119.995 118.995 126.067 111.507 126.067C104.018 126.067 97.946 119.995 97.946 112.507C97.946 105.019 104.018 98.946 111.507 98.946C118.995 98.946 125.067 105.005 125.067 112.507Z" fill="#E33F5A"/>
</g>
</g>
</g>
<g opacity="0.97">
<g opacity="0.97">
<path opacity="0.97" d="M149 154V188.821H137.622L129.87 209.565L120.013 154H149Z" fill="#142447"/>
<path opacity="0.97" d="M118.677 154L109.31 188.583L103.569 208.031L94.0961 155.627L82.8508 188.887H74V154H118.677Z" fill="#142447"/>
<path opacity="0.97" d="M149 188.821V229H74V188.887H82.8508L94.0961 155.627L103.569 208.031L109.31 188.583L118.677 154H120.013L129.87 209.565L137.622 188.821H149Z" fill="#E33F5A"/>
<path opacity="0.97" d="M128.309 229L141.34 194.192H149V188.821H137.622L129.87 209.565L120 154H118.677L109.324 188.57L103.582 208.031L94.0961 155.614L82.8508 188.887H74V194.245H86.6742L92.5086 176.993L101.941 229H103.013L114.457 190.051L118.36 175.644L127.898 229H128.309Z" fill="#F1F1F2"/>
</g>
</g>
<g opacity="0.97">
<g opacity="0.97">
<path opacity="0.97" d="M224 79H149V154H224V79Z" fill="#142447"/>
<path opacity="0.97" d="M219.436 117.962V115.065C219.436 113.384 218.073 112.035 216.406 112.035H210.77C209.46 112.035 208.283 111.188 207.899 109.931C207.489 108.582 206.947 107.285 206.298 106.055C205.677 104.891 205.915 103.462 206.841 102.536L210.836 98.5405C212.027 97.3498 212.027 95.4315 210.836 94.2408L208.772 92.1902C207.582 90.9995 205.663 90.9995 204.473 92.1902L200.477 96.1856C199.551 97.1117 198.122 97.3498 196.958 96.728C195.728 96.0797 194.431 95.5373 193.082 95.1272C191.825 94.7435 190.978 93.5661 190.978 92.2563V86.6072C190.978 84.927 189.616 83.5775 187.935 83.5775H185.038C183.358 83.5775 182.008 84.9402 182.008 86.6072V92.2563C182.008 93.5661 181.175 94.7435 179.918 95.1272C178.582 95.5373 177.285 96.0797 176.068 96.728C174.904 97.3498 173.475 97.1117 172.549 96.1856L168.554 92.1902C167.363 90.9995 165.445 90.9995 164.254 92.1902L162.203 94.2408C161.013 95.4315 161.013 97.3498 162.203 98.5405L166.212 102.549C167.138 103.475 167.376 104.904 166.754 106.068C166.106 107.299 165.564 108.595 165.14 109.945C164.757 111.201 163.579 112.035 162.27 112.035H156.607C154.927 112.035 153.564 113.398 153.564 115.065V117.962C153.564 119.642 154.927 121.005 156.607 121.005H162.27C163.579 121.005 164.757 121.838 165.14 123.095C165.551 124.431 166.093 125.728 166.741 126.958C167.363 128.122 167.125 129.551 166.199 130.477L162.19 134.486C160.999 135.677 160.999 137.595 162.19 138.786L164.241 140.836C165.431 142.027 167.35 142.027 168.54 140.836L172.549 136.814C173.488 135.888 174.904 135.65 176.068 136.272C177.285 136.92 178.582 137.463 179.918 137.873C181.162 138.256 182.008 139.434 182.008 140.744V146.393C182.008 148.073 183.371 149.436 185.038 149.436H187.935C189.616 149.436 190.978 148.073 190.978 146.393V140.744C190.978 139.434 191.812 138.256 193.069 137.873C194.418 137.449 195.715 136.907 196.945 136.259C198.109 135.637 199.538 135.875 200.464 136.801L204.473 140.81C205.663 142.001 207.582 142.001 208.772 140.81L210.836 138.759C212.027 137.569 212.027 135.65 210.836 134.46L206.841 130.464C205.915 129.525 205.677 128.096 206.298 126.945C206.947 125.728 207.489 124.431 207.899 123.095C208.283 121.838 209.46 121.005 210.77 121.005H216.419C218.086 121.005 219.436 119.642 219.436 117.962ZM196.482 120.118C196.363 120.409 196.231 120.7 196.098 120.992C195.066 123.227 193.254 125.053 190.978 126.085C190.714 126.244 190.423 126.35 190.105 126.442C188.981 126.866 187.777 127.09 186.493 127.09C185.21 127.09 184.006 126.866 182.882 126.455C182.591 126.336 182.299 126.231 182.008 126.072C179.773 125.04 177.947 123.227 176.915 120.978C176.756 120.687 176.65 120.396 176.531 120.105C176.134 118.981 175.896 117.777 175.896 116.493C175.896 115.21 176.121 114.006 176.545 112.882C176.637 112.564 176.743 112.273 176.902 112.008C177.934 109.746 179.759 107.92 181.995 106.889C182.286 106.756 182.577 106.624 182.868 106.505C183.993 106.108 185.21 105.883 186.48 105.883C187.763 105.883 188.967 106.108 190.092 106.531C190.409 106.624 190.7 106.756 190.965 106.889C193.227 107.92 195.053 109.733 196.085 112.008C196.217 112.273 196.35 112.564 196.442 112.882C196.866 114.006 197.09 115.223 197.09 116.493C197.117 117.79 196.892 119.007 196.482 120.118Z" fill="#EEEEEE"/>
</g>
</g>
<g clip-path="url(#clip4)">
<path d="M212.958 63.9743C227.605 49.3272 227.605 25.5795 212.958 10.9324C198.311 -3.71465 174.563 -3.71465 159.916 10.9324C145.269 25.5795 145.269 49.3272 159.916 63.9743C174.563 78.6214 198.311 78.6214 212.958 63.9743Z" fill="#142447"/>
<path d="M186.44 69.1921C203.969 69.1921 218.179 54.9823 218.179 37.4537C218.179 19.9251 203.969 5.7153 186.44 5.7153C168.912 5.7153 154.702 19.9251 154.702 37.4537C154.702 54.9823 168.912 69.1921 186.44 69.1921Z" fill="white"/>
<path d="M183.98 41.9651C180.672 41.9651 177.629 41.9915 174.587 41.9518C172.708 41.9254 172.285 41.1713 173.343 39.6102C179.561 30.4551 185.779 21.3001 192.05 12.1847C192.407 11.6687 193.241 11.4967 193.862 11.166C194.008 11.8539 194.378 12.5816 194.246 13.2034C193.095 19.0378 191.851 24.8589 190.634 30.6932C190.502 31.3151 190.423 31.9369 190.264 32.9291C193.016 32.9291 195.596 32.8894 198.189 32.9556C198.837 32.9688 199.803 33.1275 200.028 33.5377C200.266 33.9743 199.922 34.8871 199.578 35.4295C193.862 44.3994 188.134 53.356 182.339 62.2729C181.916 62.9212 181.003 63.2519 180.315 63.7282C180.183 62.8947 179.786 62.0215 179.945 61.241C181.215 54.8906 182.591 48.5403 183.98 41.9651Z" fill="#E33F5A"/>
</g>
<defs>
<clipPath id="clip0">
<rect width="75" height="75" fill="white" transform="translate(-1 154)"/>
</clipPath>
<clipPath id="clip1">
<rect width="75" height="75" fill="white" transform="translate(-11.4516 130.98)"/>
</clipPath>
<clipPath id="clip2">
<rect width="75" height="75" fill="white" transform="translate(29.9578 125.159)"/>
</clipPath>
<clipPath id="clip3">
<rect width="75" height="75" fill="white" transform="translate(74 75)"/>
</clipPath>
<clipPath id="clip4">
<rect width="75" height="75" fill="white" transform="translate(149)"/>
</clipPath>
</defs>
</svg>
