<svg width="67" height="340" viewBox="0 0 67 340" fill="none" xmlns="http://www.w3.org/2000/svg">
<g opacity="0.97">
<g opacity="0.97">
<path opacity="0.97" d="M67 0V31.1067H56.8359L49.9102 49.6384L41.1053 0H67Z" fill="#142447"/>
<path opacity="0.97" d="M39.9116 0L31.544 30.894L26.4147 48.2674L17.9525 1.4537L7.90668 31.1658H0V0H39.9116Z" fill="#142447"/>
<path opacity="0.97" d="M67 31.1067V67H0V31.1658H7.90669L17.9525 1.4537L26.4147 48.2674L31.544 30.894L39.9116 0H41.1053L49.9102 49.6384L56.8359 31.1067H67Z" fill="#E33F5A"/>
<path opacity="0.97" d="M48.5156 67L60.157 35.9051H67V31.1067H56.8359L49.9102 49.6384L41.0935 0H39.9116L31.5558 30.8822L26.4265 48.2674L17.9525 1.44188L7.90669 31.1658H0V35.9524H11.3223L16.5343 20.5408L24.961 67H25.9183L36.1415 32.2059L39.628 19.3353L48.1492 67H48.5156Z" fill="#F1F1F2"/>
</g>
</g>
<path d="M67 67H1V134H67V67Z" fill="#EEEEEE"/>
<g opacity="0.97">
<g opacity="0.97">
<path opacity="0.97" d="M1 134H67V67H1V134ZM54.9153 90.8382L29.4653 100.801L54.927 110.753V123.966L13.0381 106.321V95.223L54.9153 77.5659V90.8382Z" fill="#142447"/>
</g>
</g>
<g clip-path="url(#clip0)">
<g opacity="0.97">
<g opacity="0.97">
<path opacity="0.97" d="M67 171.506C67 190.014 52.0021 205.012 33.4941 205.012C14.9861 205.012 0 190.002 0 171.506C0 152.998 14.9979 138 33.5059 138C52.0139 138 67 152.998 67 171.506Z" fill="#E33F5A"/>
<path opacity="0.97" d="M58.0887 171.506C58.0887 185.086 47.0856 196.089 33.5059 196.089C19.9263 196.089 8.9231 185.086 8.9231 171.506C8.9231 157.926 19.9263 146.923 33.5059 146.923C47.0856 146.923 58.0887 157.926 58.0887 171.506Z" fill="#142447"/>
<path opacity="0.97" d="M45.6201 171.506C45.6201 178.195 40.1953 183.62 33.5059 183.62C26.8166 183.62 21.3918 178.195 21.3918 171.506C21.3918 164.817 26.8166 159.392 33.5059 159.392C40.1953 159.392 45.6201 164.805 45.6201 171.506Z" fill="#E33F5A"/>
</g>
</g>
</g>
<g opacity="0.97">
<g opacity="0.97">
<path opacity="0.97" d="M67 206H0V273H67V206Z" fill="#142447"/>
<path opacity="0.97" d="M62.9226 240.806V238.218C62.9226 236.717 61.7053 235.511 60.2161 235.511H55.1813C54.0113 235.511 52.9594 234.755 52.6167 233.632C52.2503 232.427 51.7658 231.268 51.1866 230.169C50.6312 229.129 50.8439 227.853 51.6712 227.025L55.2404 223.456C56.3041 222.392 56.3041 220.679 55.2404 219.615L53.3967 217.783C52.3331 216.72 50.6193 216.72 49.5557 217.783L45.9864 221.352C45.1591 222.18 43.8827 222.392 42.8427 221.837C41.7435 221.258 40.5853 220.773 39.3798 220.407C38.257 220.064 37.5006 219.012 37.5006 217.842V212.796C37.5006 211.295 36.2833 210.089 34.7823 210.089H32.1941C30.6931 210.089 29.4876 211.307 29.4876 212.796V217.842C29.4876 219.012 28.743 220.064 27.6202 220.407C26.4265 220.773 25.2683 221.258 24.181 221.837C23.141 222.392 21.8645 222.18 21.0372 221.352L17.468 217.783C16.4043 216.72 14.6906 216.72 13.6269 217.783L11.795 219.615C10.7314 220.679 10.7314 222.392 11.795 223.456L15.3761 227.037C16.2034 227.865 16.4161 229.141 15.8607 230.181C15.2815 231.28 14.797 232.438 14.4188 233.644C14.076 234.767 13.0242 235.511 11.8541 235.511H6.79575C5.29478 235.511 4.07745 236.729 4.07745 238.218V240.806C4.07745 242.307 5.29478 243.524 6.79575 243.524H11.8541C13.0242 243.524 14.076 244.269 14.4188 245.392C14.7852 246.585 15.2697 247.744 15.8488 248.843C16.4043 249.883 16.1916 251.159 15.3643 251.986L11.7832 255.567C10.7195 256.631 10.7195 258.345 11.7832 259.409L13.6151 261.24C14.6788 262.304 16.3925 262.304 17.4562 261.24L21.0372 257.648C21.8764 256.82 23.141 256.608 24.181 257.163C25.2683 257.742 26.4265 258.227 27.6202 258.593C28.7312 258.936 29.4876 259.988 29.4876 261.158V266.204C29.4876 267.705 30.7049 268.923 32.1941 268.923H34.7823C36.2833 268.923 37.5006 267.705 37.5006 266.204V261.158C37.5006 259.988 38.2452 258.936 39.368 258.593C40.5735 258.215 41.7317 257.73 42.8308 257.151C43.8709 256.596 45.1473 256.808 45.9746 257.636L49.5557 261.217C50.6193 262.28 52.3331 262.28 53.3967 261.217L55.2404 259.385C56.3041 258.321 56.3041 256.608 55.2404 255.544L51.6712 251.975C50.8439 251.135 50.6312 249.859 51.1866 248.831C51.7658 247.744 52.2503 246.585 52.6167 245.392C52.9594 244.269 54.0113 243.524 55.1813 243.524H60.2279C61.7171 243.524 62.9226 242.307 62.9226 240.806ZM42.4172 242.732C42.3108 242.992 42.1926 243.252 42.0745 243.512C41.1526 245.51 39.5334 247.141 37.5006 248.063C37.2643 248.204 37.0042 248.299 36.7206 248.382C35.716 248.76 34.6405 248.961 33.4941 248.961C32.3477 248.961 31.2722 248.76 30.2676 248.394C30.0076 248.287 29.7476 248.193 29.4876 248.051C27.4902 247.129 25.8592 245.51 24.9374 243.501C24.7956 243.241 24.701 242.981 24.5947 242.721C24.2401 241.716 24.0274 240.64 24.0274 239.494C24.0274 238.348 24.2283 237.272 24.6065 236.268C24.6892 235.984 24.7837 235.724 24.9256 235.488C25.8474 233.467 27.4784 231.836 29.4758 230.914C29.7358 230.796 29.9958 230.677 30.2558 230.571C31.2604 230.216 32.3477 230.016 33.4823 230.016C34.6287 230.016 35.7042 230.216 36.7088 230.595C36.9924 230.677 37.2524 230.796 37.4888 230.914C39.5098 231.836 41.1408 233.455 42.0626 235.488C42.1808 235.724 42.299 235.984 42.3817 236.268C42.7599 237.272 42.9609 238.359 42.9609 239.494C42.9845 240.652 42.7836 241.74 42.4172 242.732Z" fill="#EEEEEE"/>
</g>
</g>
<g clip-path="url(#clip1)">
<path d="M57.2833 330.15C70.1727 317.066 70.1727 295.851 57.2833 282.766C44.3939 269.682 23.4959 269.682 10.6065 282.766C-2.28297 295.851 -2.28297 317.066 10.6065 330.15C23.4959 343.235 44.3939 343.235 57.2833 330.15Z" fill="#142447"/>
<path d="M33.9477 334.812C49.3729 334.812 61.8775 322.118 61.8775 306.459C61.8775 290.8 49.3729 278.106 33.9477 278.106C18.5225 278.106 6.01788 290.8 6.01788 306.459C6.01788 322.118 18.5225 334.812 33.9477 334.812Z" fill="white"/>
<path d="M31.7822 310.489C28.8716 310.489 26.1939 310.512 23.5161 310.477C21.8629 310.453 21.4904 309.78 22.4218 308.385C27.8936 300.207 33.3655 292.028 38.8839 283.885C39.1983 283.424 39.9317 283.27 40.4789 282.975C40.607 283.59 40.933 284.24 40.8165 284.795C39.8037 290.007 38.7093 295.207 37.6382 300.419C37.5218 300.975 37.4519 301.53 37.3122 302.417C39.7338 302.417 42.0041 302.381 44.2859 302.44C44.8564 302.452 45.7063 302.594 45.9042 302.96C46.1138 303.35 45.8111 304.166 45.5084 304.65C40.4789 312.663 35.4378 320.665 30.3385 328.63C29.966 329.21 29.1626 329.505 28.5572 329.93C28.4408 329.186 28.0916 328.406 28.2313 327.709C29.3489 322.036 30.5597 316.363 31.7822 310.489Z" fill="#E33F5A"/>
</g>
<defs>
<clipPath id="clip0">
<rect width="67" height="67" fill="white" transform="translate(0 138)"/>
</clipPath>
<clipPath id="clip1">
<rect width="66" height="67" fill="white" transform="translate(1 273)"/>
</clipPath>
</defs>
</svg>
