<svg width="150" height="224" viewBox="0 0 150 224" fill="none" xmlns="http://www.w3.org/2000/svg">
<g clip-path="url(#clip0)">
<path d="M148 149H73V224H148V149Z" fill="#EEEEEE"/>
<g opacity="0.97">
<g opacity="0.97">
<path opacity="0.97" d="M73 224H148V149H73V224ZM134.267 175.685L105.347 186.837L134.281 197.977V212.768L86.6797 193.016V180.593L134.267 160.827V175.685Z" fill="#142447"/>
</g>
</g>
<g clip-path="url(#clip1)">
<path d="M126.507 189.954C141.154 175.307 141.154 151.56 126.507 136.913C111.859 122.265 88.1119 122.265 73.4648 136.913C58.8177 151.56 58.8177 175.307 73.4648 189.954C88.1119 204.601 111.859 204.601 126.507 189.954Z" fill="#142447"/>
<path d="M99.9888 195.172C117.517 195.172 131.727 180.962 131.727 163.434C131.727 145.905 117.517 131.695 99.9888 131.695C82.4602 131.695 68.2504 145.905 68.2504 163.434C68.2504 180.962 82.4602 195.172 99.9888 195.172Z" fill="white"/>
<path d="M97.5281 167.945C94.2206 167.945 91.1777 167.972 88.1349 167.932C86.2562 167.905 85.8329 167.151 86.8913 165.59C93.1093 156.435 99.3273 147.28 105.598 138.165C105.955 137.649 106.789 137.477 107.411 137.146C107.556 137.834 107.927 138.562 107.794 139.183C106.643 145.018 105.4 150.839 104.183 156.673C104.05 157.295 103.971 157.917 103.812 158.909C106.564 158.909 109.144 158.869 111.737 158.936C112.385 158.949 113.351 159.108 113.576 159.518C113.814 159.954 113.47 160.867 113.126 161.41C107.411 170.379 101.682 179.336 95.8876 188.253C95.4642 188.901 94.5513 189.232 93.8634 189.708C93.7311 188.875 93.3342 188.002 93.493 187.221C94.763 180.871 96.1389 174.52 97.5281 167.945Z" fill="#E33F5A"/>
</g>
<g clip-path="url(#clip2)">
<g opacity="0.97">
<g opacity="0.97">
<path opacity="0.97" d="M178.958 120.159H103.958V195.159H178.958V120.159Z" fill="#142447"/>
<path opacity="0.97" d="M141.451 131.986V183.345" stroke="#EEEEEE" stroke-width="117.227" stroke-miterlimit="10"/>
<path opacity="0.97" d="M119.225 144.819L163.704 170.499" stroke="#EEEEEE" stroke-width="117.227" stroke-miterlimit="10"/>
<path opacity="0.97" d="M119.225 170.499L163.704 144.819" stroke="#EEEEEE" stroke-width="117.227" stroke-miterlimit="10"/>
</g>
</g>
</g>
</g>
<g clip-path="url(#clip3)">
<g opacity="0.97">
<g opacity="0.97">
<path opacity="0.97" d="M75 111.507C75 132.225 58.2113 149.013 37.4934 149.013C16.7754 149.013 0 132.211 0 111.507C0 90.7887 16.7887 74 37.5066 74C58.2246 74 75 90.7887 75 111.507Z" fill="#E33F5A"/>
<path opacity="0.97" d="M65.0247 111.507C65.0247 126.708 52.7077 139.025 37.5066 139.025C22.3055 139.025 9.98853 126.708 9.98853 111.507C9.98853 96.3055 22.3055 83.9885 37.5066 83.9885C52.7077 83.9885 65.0247 96.3055 65.0247 111.507Z" fill="#142447"/>
<path opacity="0.97" d="M51.0672 111.507C51.0672 118.995 44.9947 125.067 37.5066 125.067C30.0185 125.067 23.946 118.995 23.946 111.507C23.946 104.019 30.0185 97.946 37.5066 97.946C44.9947 97.946 51.0672 104.005 51.0672 111.507Z" fill="#E33F5A"/>
</g>
</g>
</g>
<g opacity="0.97">
<g opacity="0.97">
<path opacity="0.97" d="M75 149V183.821H63.6224L55.8697 204.565L46.0134 149H75Z" fill="#142447"/>
<path opacity="0.97" d="M44.6772 149L35.3104 183.583L29.5687 203.031L20.0961 150.627L8.85076 183.887H0V149H44.6772Z" fill="#142447"/>
<path opacity="0.97" d="M75 183.821V224H0V183.887H8.85077L20.0961 150.627L29.5687 203.031L35.3105 183.583L44.6772 149H46.0134L55.8696 204.565L63.6223 183.821H75Z" fill="#E33F5A"/>
<path opacity="0.97" d="M54.3085 224L67.3399 189.192H75V183.821H63.6223L55.8696 204.565L46.0002 149H44.6772L35.3237 183.57L29.5819 203.031L20.0961 150.614L8.85077 183.887H0V189.245H12.6742L18.5086 171.993L27.9414 224H29.0131L40.4569 185.051L44.3597 170.644L53.8984 224H54.3085Z" fill="#F1F1F2"/>
</g>
</g>
<g opacity="0.97">
<g opacity="0.97">
<path opacity="0.97" d="M150 0H75V75H150V0Z" fill="#142447"/>
<path opacity="0.97" d="M145.436 38.9619V36.0646C145.436 34.3844 144.073 33.0349 142.406 33.0349H136.77C135.46 33.0349 134.283 32.1882 133.899 30.9314C133.489 29.5819 132.947 28.2854 132.298 27.055C131.677 25.8908 131.915 24.462 132.841 23.5359L136.836 19.5405C138.027 18.3498 138.027 16.4315 136.836 15.2408L134.772 13.1901C133.582 11.9995 131.663 11.9995 130.473 13.1901L126.477 17.1856C125.551 18.1117 124.122 18.3498 122.958 17.728C121.728 17.0797 120.431 16.5373 119.082 16.1272C117.825 15.7435 116.978 14.5661 116.978 13.2563V7.60715C116.978 5.92696 115.616 4.57751 113.935 4.57751H111.038C109.358 4.57751 108.008 5.94019 108.008 7.60715V13.2563C108.008 14.5661 107.175 15.7435 105.918 16.1272C104.582 16.5373 103.285 17.0797 102.068 17.728C100.904 18.3498 99.4752 18.1117 98.5491 17.1856L94.5537 13.1901C93.363 11.9995 91.4447 11.9995 90.254 13.1901L88.2034 15.2408C87.0127 16.4315 87.0127 18.3498 88.2034 19.5405L92.212 23.5491C93.1381 24.4752 93.3762 25.904 92.7544 27.0683C92.1062 28.2986 91.5637 29.5952 91.1404 30.9446C90.7567 32.2014 89.5793 33.0349 88.2695 33.0349H82.6071C80.9269 33.0349 79.5643 34.3976 79.5643 36.0646V38.9619C79.5643 40.6421 80.9269 42.0048 82.6071 42.0048H88.2695C89.5793 42.0048 90.7567 42.8382 91.1404 44.0951C91.5505 45.4313 92.0929 46.7278 92.7412 47.9582C93.363 49.1224 93.1249 50.5512 92.1988 51.4773L88.1901 55.486C86.9994 56.6767 86.9994 58.595 88.1901 59.7857L90.2408 61.8363C91.4314 63.027 93.3498 63.027 94.5405 61.8363L98.5491 57.8144C99.4884 56.8883 100.904 56.6502 102.068 57.272C103.285 57.9203 104.582 58.4627 105.918 58.8728C107.162 59.2565 108.008 60.4339 108.008 61.7437V67.3928C108.008 69.073 109.371 70.4357 111.038 70.4357H113.935C115.616 70.4357 116.978 69.073 116.978 67.3928V61.7437C116.978 60.4339 117.812 59.2565 119.069 58.8728C120.418 58.4495 121.715 57.907 122.945 57.2588C124.109 56.637 125.538 56.8751 126.464 57.8012L130.473 61.8098C131.663 63.0005 133.582 63.0005 134.772 61.8098L136.836 59.7592C138.027 58.5685 138.027 56.6502 136.836 55.4595L132.841 51.4641C131.915 50.5248 131.677 49.096 132.298 47.945C132.947 46.7278 133.489 45.4313 133.899 44.0951C134.283 42.8382 135.46 42.0048 136.77 42.0048H142.419C144.086 42.0048 145.436 40.6421 145.436 38.9619ZM122.482 41.1184C122.363 41.4094 122.231 41.7005 122.098 41.9915C121.066 44.2274 119.254 46.0531 116.978 47.085C116.714 47.2438 116.423 47.3496 116.105 47.4422C114.981 47.8656 113.777 48.0905 112.493 48.0905C111.21 48.0905 110.006 47.8656 108.882 47.4555C108.591 47.3364 108.299 47.2305 108.008 47.0718C105.773 46.0399 103.947 44.2274 102.915 41.9783C102.756 41.6872 102.65 41.3962 102.531 41.1051C102.134 39.9806 101.896 38.7767 101.896 37.4934C101.896 36.2101 102.121 35.0062 102.545 33.8816C102.637 33.5641 102.743 33.2731 102.902 33.0085C103.934 30.7462 105.759 28.9204 107.995 27.8885C108.286 27.7562 108.577 27.6239 108.868 27.5048C109.993 27.1079 111.21 26.883 112.48 26.883C113.763 26.883 114.967 27.1079 116.092 27.5313C116.409 27.6239 116.7 27.7562 116.965 27.8885C119.227 28.9204 121.053 30.7329 122.085 33.0085C122.217 33.2731 122.35 33.5641 122.442 33.8816C122.866 35.0062 123.09 36.2233 123.09 37.4934C123.117 38.7899 122.892 40.0071 122.482 41.1184Z" fill="#EEEEEE"/>
</g>
</g>
<g clip-path="url(#clip4)">
<path d="M138.958 138.974C153.605 124.327 153.605 100.58 138.958 85.9324C124.311 71.2853 100.563 71.2853 85.9164 85.9324C71.2693 100.58 71.2693 124.327 85.9164 138.974C100.563 153.621 124.311 153.621 138.958 138.974Z" fill="#142447"/>
<path d="M112.44 144.192C129.969 144.192 144.179 129.982 144.179 112.454C144.179 94.9251 129.969 80.7153 112.44 80.7153C94.9119 80.7153 80.7021 94.9251 80.7021 112.454C80.7021 129.982 94.9119 144.192 112.44 144.192Z" fill="white"/>
<path d="M109.98 116.965C106.672 116.965 103.629 116.992 100.587 116.952C98.7079 116.925 98.2845 116.171 99.3429 114.61C105.561 105.455 111.779 96.3 118.05 87.1847C118.407 86.6687 119.241 86.4967 119.862 86.166C120.008 86.8539 120.378 87.5816 120.246 88.2034C119.095 94.0377 117.851 99.8589 116.634 105.693C116.502 106.315 116.423 106.937 116.264 107.929C119.016 107.929 121.596 107.889 124.189 107.956C124.837 107.969 125.803 108.128 126.028 108.538C126.266 108.974 125.922 109.887 125.578 110.43C119.862 119.399 114.134 128.356 108.339 137.273C107.916 137.921 107.003 138.252 106.315 138.728C106.183 137.895 105.786 137.022 105.945 136.241C107.215 129.891 108.591 123.54 109.98 116.965Z" fill="#E33F5A"/>
</g>
<defs>
<clipPath id="clip0">
<rect width="75" height="75" fill="white" transform="translate(73 149)"/>
</clipPath>
<clipPath id="clip1">
<rect width="75" height="75" fill="white" transform="translate(62.5484 125.98)"/>
</clipPath>
<clipPath id="clip2">
<rect width="75" height="75" fill="white" transform="translate(103.958 120.159)"/>
</clipPath>
<clipPath id="clip3">
<rect width="75" height="75" fill="white" transform="translate(0 74)"/>
</clipPath>
<clipPath id="clip4">
<rect width="75" height="75" fill="white" transform="translate(75 75)"/>
</clipPath>
</defs>
</svg>
